<svg width="270" height="120" viewBox="0 0 270 120" fill="none" xmlns="http://www.w3.org/2000/svg">
<g clip-path="url(#clip0_18_71)">
<path d="M105.312 59.9031C105.312 52.9266 96.5754 46.3151 83.1806 42.2151C86.2717 28.5628 84.8979 17.701 78.8445 14.2235C77.4492 13.4078 75.8178 13.0214 74.0361 13.0214V17.8083C75.0235 17.8083 75.8178 18.0015 76.4832 18.3664C79.4026 20.0408 80.6691 26.4162 79.6816 34.6162C79.4455 36.634 79.0591 38.7591 78.5869 40.9272C74.3795 39.8968 69.7858 39.1026 64.956 38.5874C62.0581 34.6162 59.0529 31.0099 56.0262 27.8544C63.0241 21.3502 69.5926 17.7869 74.0576 17.7869V12.9999C68.1544 12.9999 60.4267 17.2073 52.6131 24.5057C44.7995 17.2502 37.0717 13.0858 31.1686 13.0858V17.8727C35.612 17.8727 42.2021 21.4146 49.2 27.8759C46.1947 31.0314 43.1895 34.6162 40.3345 38.5874C35.4832 39.1026 30.8895 39.8968 26.6822 40.9486C26.1885 38.802 25.8235 36.7198 25.566 34.7235C24.5571 26.5235 25.8021 20.1481 28.7 18.4523C29.344 18.0659 30.1811 17.8942 31.1686 17.8942V13.1073C29.3654 13.1073 27.734 13.4937 26.3173 14.3094C20.2853 17.7869 18.933 28.6272 22.0455 42.2366C8.69371 46.358 0 52.9481 0 59.9031C0 66.8795 8.73664 73.491 22.1314 77.591C19.0403 91.2434 20.4141 102.105 26.4675 105.583C27.8628 106.398 29.4942 106.785 31.2974 106.785C37.2005 106.785 44.9283 102.577 52.7419 95.279C60.5555 102.534 68.2832 106.699 74.1864 106.699C75.9895 106.699 77.6209 106.312 79.0377 105.497C85.0696 102.019 86.422 91.179 83.3094 77.5695C96.6183 73.4696 105.312 66.858 105.312 59.9031V59.9031ZM77.3633 45.5853C76.5691 48.3544 75.5816 51.2094 74.4654 54.0643C73.5853 52.347 72.6623 50.6298 71.6534 48.9125C70.6659 47.1952 69.6141 45.5209 68.5623 43.8895C71.6104 44.3402 74.5513 44.8984 77.3633 45.5853ZM67.5319 68.4465C65.8576 71.3444 64.1403 74.0921 62.3586 76.6465C59.1602 76.9256 55.9188 77.0758 52.656 77.0758C49.4146 77.0758 46.1733 76.9256 42.9963 76.668C41.2146 74.1135 39.4759 71.3874 37.8016 68.5109C36.1701 65.6989 34.689 62.8439 33.3366 59.9675C34.6675 57.091 36.1701 54.2146 37.7801 51.4025C39.4544 48.5046 41.1717 45.757 42.9534 43.2025C46.1518 42.9235 49.3932 42.7732 52.656 42.7732C55.8974 42.7732 59.1387 42.9235 62.3157 43.1811C64.0974 45.7355 65.8361 48.4617 67.5104 51.3381C69.1419 54.1502 70.623 57.0052 71.9754 59.8816C70.623 62.758 69.1419 65.6345 67.5319 68.4465ZM74.4654 65.6559C75.6246 68.5324 76.612 71.4088 77.4277 74.1994C74.6157 74.8863 71.6534 75.4659 68.5837 75.9167C69.6356 74.2638 70.6874 72.568 71.6748 70.8292C72.6623 69.112 73.5853 67.3732 74.4654 65.6559ZM52.6989 88.5601C50.7026 86.4994 48.7063 84.2025 46.7314 81.691C48.6633 81.7769 50.6382 81.8413 52.6345 81.8413C54.6523 81.8413 56.6487 81.7983 58.6021 81.691C56.6701 84.2025 54.6738 86.4994 52.6989 88.5601ZM36.7283 75.9167C33.6801 75.4659 30.7393 74.9078 27.9272 74.2209C28.7215 71.4518 29.7089 68.5968 30.8251 65.7418C31.7052 67.4591 32.6283 69.1764 33.6372 70.8936C34.6461 72.6109 35.6764 74.2853 36.7283 75.9167ZM52.5916 31.246C54.5879 33.3067 56.5843 35.6036 58.5591 38.1151C56.6272 38.0293 54.6523 37.9649 52.656 37.9649C50.6382 37.9649 48.6419 38.0078 46.6885 38.1151C48.6204 35.6036 50.6167 33.3067 52.5916 31.246ZM36.7068 43.8895C35.655 45.5423 34.6031 47.2382 33.6157 48.9769C32.6283 50.6942 31.7052 52.4114 30.8251 54.1287C29.666 51.2523 28.6785 48.3758 27.8628 45.5853C30.6749 44.9198 33.6372 44.3402 36.7068 43.8895V43.8895ZM17.2801 70.7648C9.68115 67.5235 4.76544 63.2732 4.76544 59.9031C4.76544 56.5329 9.68115 52.2612 17.2801 49.0413C19.1262 48.247 21.144 47.5387 23.2262 46.8732C24.4497 51.0806 26.0597 55.4596 28.056 59.946C26.0811 64.4109 24.4927 68.7685 23.2906 72.9544C21.1654 72.2889 19.1476 71.5591 17.2801 70.7648ZM28.8288 101.44C25.9094 99.7654 24.6429 93.39 25.6304 85.19C25.8665 83.1722 26.2529 81.047 26.7251 78.879C30.9325 79.9093 35.5262 80.7036 40.356 81.2188C43.2539 85.19 46.2591 88.7962 49.2858 91.9517C42.2879 98.4559 35.7194 102.019 31.2544 102.019C30.2885 101.998 29.4728 101.805 28.8288 101.44V101.44ZM79.746 85.0826C80.7549 93.2826 79.5099 99.658 76.612 101.354C75.968 101.74 75.1309 101.912 74.1434 101.912C69.7 101.912 63.1099 98.3701 56.112 91.9088C59.1173 88.7533 62.1225 85.1685 64.9775 81.1973C69.8288 80.6821 74.4225 79.8879 78.6298 78.836C79.1235 81.0041 79.5099 83.0863 79.746 85.0826V85.0826ZM88.0104 70.7648C86.1644 71.5591 84.1466 72.2675 82.0644 72.9329C80.8408 68.7256 79.2309 64.3465 77.2345 59.8601C79.2094 55.3952 80.7979 51.0376 82 46.8518C84.1251 47.5172 86.1429 48.247 88.0319 49.0413C95.6308 52.2826 100.547 56.5329 100.547 59.9031C100.525 63.2732 95.6094 67.5449 88.0104 70.7648V70.7648Z" fill="#81D8F7"/>
<path d="M52.6345 69.713C58.0524 69.713 62.4445 65.3209 62.4445 59.9031C62.4445 54.4852 58.0524 50.0931 52.6345 50.0931C47.2166 50.0931 42.8246 54.4852 42.8246 59.9031C42.8246 65.3209 47.2166 69.713 52.6345 69.713Z" fill="#81D8F7"/>
</g>
<path d="M121.625 84H117.585V70.9091H121.804C123.074 70.9091 124.161 71.1712 125.064 71.6953C125.967 72.2152 126.66 72.9631 127.141 73.9389C127.623 74.9105 127.864 76.0739 127.864 77.429C127.864 78.7926 127.621 79.9666 127.135 80.951C126.649 81.9311 125.942 82.6854 125.013 83.2138C124.084 83.7379 122.955 84 121.625 84ZM119.17 82.5938H121.523C122.605 82.5938 123.502 82.3849 124.214 81.9673C124.925 81.5497 125.456 80.9553 125.805 80.1839C126.155 79.4126 126.33 78.4943 126.33 77.429C126.33 76.3722 126.157 75.4624 125.812 74.6996C125.467 73.9325 124.951 73.3445 124.265 72.9354C123.579 72.522 122.724 72.3153 121.702 72.3153H119.17V82.5938ZM134.435 84.2045C133.489 84.2045 132.673 83.9957 131.987 83.5781C131.305 83.1562 130.778 82.5682 130.408 81.8139C130.041 81.0554 129.858 80.1733 129.858 79.1676C129.858 78.1619 130.041 77.2756 130.408 76.5085C130.778 75.7372 131.294 75.1364 131.955 74.706C132.619 74.2713 133.395 74.054 134.281 74.054C134.793 74.054 135.298 74.1392 135.796 74.3097C136.295 74.4801 136.749 74.7571 137.158 75.1406C137.567 75.5199 137.893 76.0227 138.136 76.6491C138.379 77.2756 138.5 78.0469 138.5 78.9631V79.6023H130.932V78.2983H136.966C136.966 77.7443 136.855 77.25 136.634 76.8153C136.416 76.3807 136.105 76.0376 135.7 75.7862C135.3 75.5348 134.827 75.4091 134.281 75.4091C133.68 75.4091 133.161 75.5582 132.722 75.8565C132.287 76.1506 131.952 76.5341 131.718 77.0071C131.484 77.4801 131.366 77.9872 131.366 78.5284V79.3977C131.366 80.1392 131.494 80.7678 131.75 81.2834C132.01 81.7947 132.37 82.1847 132.83 82.4531C133.29 82.7173 133.825 82.8494 134.435 82.8494C134.831 82.8494 135.189 82.794 135.509 82.6832C135.832 82.5682 136.112 82.3977 136.346 82.1719C136.58 81.9418 136.761 81.6562 136.889 81.3153L138.347 81.7244C138.193 82.2188 137.935 82.6534 137.573 83.0284C137.211 83.3991 136.763 83.6889 136.231 83.8977C135.698 84.1023 135.099 84.2045 134.435 84.2045ZM147.749 76.3807L146.394 76.7642C146.309 76.5384 146.183 76.3189 146.017 76.1058C145.855 75.8885 145.634 75.7095 145.352 75.5689C145.071 75.4283 144.711 75.358 144.272 75.358C143.671 75.358 143.17 75.4964 142.77 75.7734C142.374 76.0462 142.175 76.3935 142.175 76.8153C142.175 77.1903 142.312 77.4865 142.585 77.7038C142.857 77.9212 143.283 78.1023 143.863 78.2472L145.32 78.6051C146.198 78.8182 146.852 79.1442 147.283 79.5831C147.713 80.0178 147.928 80.5781 147.928 81.2642C147.928 81.8267 147.766 82.3295 147.442 82.7727C147.123 83.2159 146.675 83.5653 146.1 83.821C145.525 84.0767 144.856 84.2045 144.093 84.2045C143.092 84.2045 142.263 83.9872 141.607 83.5526C140.95 83.1179 140.535 82.483 140.36 81.6477L141.792 81.2898C141.928 81.8182 142.186 82.2145 142.565 82.4787C142.949 82.7429 143.45 82.875 144.067 82.875C144.771 82.875 145.329 82.7259 145.742 82.4276C146.16 82.125 146.369 81.7628 146.369 81.3409C146.369 81 146.249 80.7145 146.011 80.4844C145.772 80.25 145.406 80.0753 144.911 79.9602L143.275 79.5767C142.376 79.3636 141.715 79.0334 141.293 78.5859C140.876 78.1342 140.667 77.5696 140.667 76.892C140.667 76.3381 140.822 75.848 141.134 75.4219C141.449 74.9957 141.877 74.6612 142.418 74.4183C142.964 74.1754 143.582 74.054 144.272 74.054C145.244 74.054 146.006 74.267 146.56 74.6932C147.119 75.1193 147.515 75.6818 147.749 76.3807ZM150.199 84V74.1818H151.708V84H150.199ZM150.966 72.5455C150.672 72.5455 150.419 72.4453 150.205 72.245C149.997 72.0447 149.892 71.804 149.892 71.5227C149.892 71.2415 149.997 71.0007 150.205 70.8004C150.419 70.6001 150.672 70.5 150.966 70.5C151.26 70.5 151.512 70.6001 151.72 70.8004C151.933 71.0007 152.04 71.2415 152.04 71.5227C152.04 71.804 151.933 72.0447 151.72 72.245C151.512 72.4453 151.26 72.5455 150.966 72.5455ZM158.434 87.8864C157.705 87.8864 157.078 87.7926 156.554 87.6051C156.03 87.4219 155.593 87.179 155.244 86.8764C154.899 86.5781 154.624 86.2585 154.419 85.9176L155.621 85.0739C155.757 85.2528 155.93 85.4574 156.139 85.6875C156.348 85.9219 156.633 86.1243 156.995 86.2947C157.362 86.4695 157.841 86.5568 158.434 86.5568C159.226 86.5568 159.88 86.3651 160.396 85.9815C160.912 85.598 161.169 84.9972 161.169 84.179V82.1847H161.042C160.931 82.3636 160.773 82.5852 160.569 82.8494C160.368 83.1094 160.078 83.3416 159.699 83.5462C159.324 83.7464 158.817 83.8466 158.178 83.8466C157.385 83.8466 156.674 83.6591 156.043 83.2841C155.417 82.9091 154.92 82.3636 154.554 81.6477C154.191 80.9318 154.01 80.0625 154.01 79.0398C154.01 78.0341 154.187 77.1584 154.541 76.4126C154.895 75.6626 155.387 75.0831 156.017 74.674C156.648 74.2607 157.377 74.054 158.203 74.054C158.843 74.054 159.35 74.1605 159.725 74.3736C160.104 74.5824 160.394 74.821 160.594 75.0895C160.799 75.3537 160.956 75.571 161.067 75.7415H161.221V74.1818H162.678V84.2812C162.678 85.125 162.486 85.8111 162.103 86.3395C161.723 86.8722 161.212 87.2621 160.569 87.5092C159.929 87.7607 159.218 87.8864 158.434 87.8864ZM158.382 82.4915C158.988 82.4915 159.499 82.353 159.917 82.076C160.334 81.799 160.652 81.4006 160.869 80.8807C161.086 80.3608 161.195 79.7386 161.195 79.0142C161.195 78.3068 161.088 77.6825 160.875 77.1413C160.662 76.6001 160.347 76.1761 159.929 75.8693C159.512 75.5625 158.996 75.4091 158.382 75.4091C157.743 75.4091 157.211 75.571 156.784 75.8949C156.363 76.2187 156.045 76.6534 155.832 77.1989C155.623 77.7443 155.519 78.3494 155.519 79.0142C155.519 79.696 155.625 80.299 155.838 80.8232C156.056 81.343 156.375 81.7521 156.797 82.0504C157.223 82.3445 157.752 82.4915 158.382 82.4915ZM166.948 78.0938V84H165.439V74.1818H166.897V75.7159H167.025C167.255 75.2173 167.604 74.8168 168.073 74.5142C168.542 74.2074 169.147 74.054 169.888 74.054C170.553 74.054 171.135 74.1903 171.633 74.4631C172.132 74.7315 172.52 75.1406 172.797 75.6903C173.074 76.2358 173.212 76.9261 173.212 77.7614V84H171.703V77.8636C171.703 77.0923 171.503 76.4915 171.103 76.0611C170.702 75.6264 170.152 75.4091 169.453 75.4091C168.972 75.4091 168.542 75.5135 168.162 75.7223C167.787 75.9311 167.491 76.2358 167.274 76.6364C167.056 77.0369 166.948 77.5227 166.948 78.0938ZM188.395 74.1818C188.318 73.5341 188.007 73.0312 187.461 72.6733C186.916 72.3153 186.247 72.1364 185.454 72.1364C184.875 72.1364 184.368 72.2301 183.933 72.4176C183.503 72.6051 183.166 72.8629 182.923 73.1911C182.684 73.5192 182.565 73.892 182.565 74.3097C182.565 74.6591 182.648 74.9595 182.814 75.2109C182.985 75.4581 183.202 75.6648 183.466 75.831C183.731 75.9929 184.008 76.1271 184.297 76.2337C184.587 76.3359 184.854 76.419 185.096 76.483L186.426 76.8409C186.767 76.9304 187.146 77.054 187.564 77.2116C187.986 77.3693 188.388 77.5845 188.772 77.8572C189.16 78.1257 189.479 78.4709 189.731 78.8928C189.982 79.3146 190.108 79.8324 190.108 80.446C190.108 81.1534 189.922 81.7926 189.552 82.3636C189.185 82.9347 188.648 83.3885 187.941 83.7251C187.238 84.0618 186.383 84.2301 185.378 84.2301C184.44 84.2301 183.628 84.0788 182.942 83.7763C182.26 83.4737 181.724 83.0518 181.331 82.5107C180.944 81.9695 180.724 81.3409 180.673 80.625H182.309C182.352 81.1193 182.518 81.5284 182.808 81.8523C183.102 82.1719 183.473 82.4105 183.92 82.5682C184.372 82.7216 184.858 82.7983 185.378 82.7983C185.983 82.7983 186.526 82.7003 187.008 82.5043C187.489 82.304 187.871 82.027 188.152 81.6733C188.433 81.3153 188.574 80.8977 188.574 80.4205C188.574 79.9858 188.452 79.6321 188.209 79.3594C187.966 79.0866 187.647 78.8651 187.251 78.6946C186.854 78.5241 186.426 78.375 185.966 78.2472L184.355 77.7869C183.332 77.4929 182.523 77.0732 181.926 76.5277C181.329 75.9822 181.031 75.2685 181.031 74.3864C181.031 73.6534 181.229 73.0142 181.626 72.4688C182.026 71.919 182.563 71.4929 183.236 71.1903C183.914 70.8835 184.67 70.7301 185.506 70.7301C186.349 70.7301 187.099 70.8814 187.756 71.1839C188.412 71.4822 188.932 71.8913 189.315 72.4112C189.703 72.9311 189.907 73.5213 189.929 74.1818H188.395ZM193.481 87.6818C193.225 87.6818 192.998 87.6605 192.797 87.6179C192.597 87.5795 192.458 87.5412 192.382 87.5028L192.765 86.1733C193.132 86.267 193.456 86.3011 193.737 86.2756C194.018 86.25 194.267 86.1243 194.485 85.8984C194.706 85.6768 194.909 85.3168 195.092 84.8182L195.373 84.0511L191.743 74.1818H193.379L196.089 82.0057H196.191L198.902 74.1818H200.538L196.37 85.4318C196.183 85.9389 195.951 86.3587 195.674 86.6911C195.397 87.0277 195.075 87.277 194.708 87.4389C194.346 87.6009 193.937 87.6818 193.481 87.6818ZM209.484 76.3807L208.129 76.7642C208.043 76.5384 207.918 76.3189 207.751 76.1058C207.589 75.8885 207.368 75.7095 207.087 75.5689C206.805 75.4283 206.445 75.358 206.006 75.358C205.406 75.358 204.905 75.4964 204.504 75.7734C204.108 76.0462 203.91 76.3935 203.91 76.8153C203.91 77.1903 204.046 77.4865 204.319 77.7038C204.592 77.9212 205.018 78.1023 205.597 78.2472L207.055 78.6051C207.933 78.8182 208.587 79.1442 209.017 79.5831C209.447 80.0178 209.663 80.5781 209.663 81.2642C209.663 81.8267 209.501 82.3295 209.177 82.7727C208.857 83.2159 208.41 83.5653 207.835 83.821C207.259 84.0767 206.59 84.2045 205.827 84.2045C204.826 84.2045 203.997 83.9872 203.341 83.5526C202.685 83.1179 202.269 82.483 202.094 81.6477L203.526 81.2898C203.663 81.8182 203.92 82.2145 204.3 82.4787C204.683 82.7429 205.184 82.875 205.802 82.875C206.505 82.875 207.063 82.7259 207.477 82.4276C207.894 82.125 208.103 81.7628 208.103 81.3409C208.103 81 207.984 80.7145 207.745 80.4844C207.506 80.25 207.14 80.0753 206.646 79.9602L205.009 79.5767C204.11 79.3636 203.45 79.0334 203.028 78.5859C202.61 78.1342 202.401 77.5696 202.401 76.892C202.401 76.3381 202.557 75.848 202.868 75.4219C203.183 74.9957 203.612 74.6612 204.153 74.4183C204.698 74.1754 205.316 74.054 206.006 74.054C206.978 74.054 207.741 74.267 208.295 74.6932C208.853 75.1193 209.249 75.6818 209.484 76.3807ZM216.203 74.1818V75.4602H211.115V74.1818H216.203ZM212.598 71.8295H214.107V81.1875C214.107 81.6136 214.169 81.9332 214.292 82.1463C214.42 82.3551 214.582 82.4957 214.778 82.5682C214.978 82.6364 215.189 82.6705 215.411 82.6705C215.577 82.6705 215.713 82.6619 215.82 82.6449C215.926 82.6236 216.012 82.6065 216.075 82.5938L216.382 83.9489C216.28 83.9872 216.137 84.0256 215.954 84.0639C215.771 84.1065 215.539 84.1278 215.257 84.1278C214.831 84.1278 214.414 84.0362 214.004 83.853C213.6 83.6697 213.263 83.3906 212.994 83.0156C212.73 82.6406 212.598 82.1676 212.598 81.5966V71.8295ZM222.483 84.2045C221.537 84.2045 220.721 83.9957 220.035 83.5781C219.354 83.1562 218.827 82.5682 218.456 81.8139C218.09 81.0554 217.907 80.1733 217.907 79.1676C217.907 78.1619 218.09 77.2756 218.456 76.5085C218.827 75.7372 219.343 75.1364 220.003 74.706C220.668 74.2713 221.444 74.054 222.33 74.054C222.841 74.054 223.346 74.1392 223.845 74.3097C224.344 74.4801 224.797 74.7571 225.206 75.1406C225.616 75.5199 225.942 76.0227 226.184 76.6491C226.427 77.2756 226.549 78.0469 226.549 78.9631V79.6023H218.981V78.2983H225.015C225.015 77.7443 224.904 77.25 224.682 76.8153C224.465 76.3807 224.154 76.0376 223.749 75.7862C223.349 75.5348 222.876 75.4091 222.33 75.4091C221.729 75.4091 221.209 75.5582 220.77 75.8565C220.336 76.1506 220.001 76.5341 219.767 77.0071C219.532 77.4801 219.415 77.9872 219.415 78.5284V79.3977C219.415 80.1392 219.543 80.7678 219.799 81.2834C220.059 81.7947 220.419 82.1847 220.879 82.4531C221.339 82.7173 221.874 82.8494 222.483 82.8494C222.88 82.8494 223.238 82.794 223.557 82.6832C223.881 82.5682 224.16 82.3977 224.395 82.1719C224.629 81.9418 224.81 81.6562 224.938 81.3153L226.395 81.7244C226.242 82.2188 225.984 82.6534 225.622 83.0284C225.26 83.3991 224.812 83.6889 224.28 83.8977C223.747 84.1023 223.148 84.2045 222.483 84.2045ZM228.844 84V74.1818H230.301V75.7159H230.429C230.633 75.1918 230.964 74.7848 231.42 74.495C231.876 74.201 232.423 74.054 233.062 74.054C233.71 74.054 234.249 74.201 234.68 74.495C235.114 74.7848 235.453 75.1918 235.696 75.7159H235.798C236.05 75.2088 236.427 74.8061 236.93 74.5078C237.432 74.2053 238.035 74.054 238.738 74.054C239.616 74.054 240.334 74.3288 240.893 74.8786C241.451 75.424 241.73 76.2741 241.73 77.429V84H240.221V77.429C240.221 76.7045 240.023 76.1868 239.627 75.8757C239.231 75.5646 238.764 75.4091 238.227 75.4091C237.537 75.4091 237.002 75.6179 236.623 76.0355C236.243 76.4489 236.054 76.973 236.054 77.608V84H234.52V77.2756C234.52 76.7173 234.339 76.2678 233.976 75.9268C233.614 75.5817 233.148 75.4091 232.577 75.4091C232.184 75.4091 231.818 75.5135 231.477 75.7223C231.14 75.9311 230.868 76.2209 230.659 76.5916C230.454 76.9581 230.352 77.3821 230.352 77.8636V84H228.844Z" fill="#7C7C8A"/>
<path d="M122.943 34.7273V58H118.023V34.7273H122.943ZM134.764 64.9091C133.196 64.9091 131.851 64.6932 130.73 64.2614C129.616 63.8371 128.73 63.2576 128.071 62.5227C127.412 61.7879 126.984 60.9621 126.787 60.0455L131.264 59.4432C131.401 59.7917 131.616 60.1174 131.912 60.4205C132.207 60.7235 132.598 60.9659 133.082 61.1477C133.575 61.3371 134.173 61.4318 134.878 61.4318C135.931 61.4318 136.798 61.1742 137.48 60.6591C138.17 60.1515 138.514 59.2992 138.514 58.1023V54.9091H138.31C138.098 55.3939 137.779 55.8523 137.355 56.2841C136.931 56.7159 136.385 57.0682 135.719 57.3409C135.052 57.6136 134.257 57.75 133.332 57.75C132.022 57.75 130.829 57.447 129.753 56.8409C128.685 56.2273 127.832 55.2917 127.196 54.0341C126.567 52.7689 126.253 51.1705 126.253 49.2386C126.253 47.2614 126.575 45.6098 127.219 44.2841C127.863 42.9583 128.719 41.9659 129.787 41.3068C130.863 40.6477 132.041 40.3182 133.321 40.3182C134.298 40.3182 135.116 40.4848 135.776 40.8182C136.435 41.1439 136.965 41.553 137.366 42.0455C137.776 42.5303 138.09 43.0076 138.31 43.4773H138.491V40.5455H143.298V58.1705C143.298 59.6553 142.935 60.8977 142.207 61.8977C141.48 62.8977 140.473 63.6477 139.185 64.1477C137.904 64.6553 136.431 64.9091 134.764 64.9091ZM134.866 54.1136C135.647 54.1136 136.306 53.9205 136.844 53.5341C137.389 53.1402 137.806 52.5795 138.094 51.8523C138.389 51.1174 138.537 50.2386 138.537 49.2159C138.537 48.1932 138.393 47.3068 138.105 46.5568C137.817 45.7992 137.401 45.2121 136.855 44.7955C136.31 44.3788 135.647 44.1705 134.866 44.1705C134.071 44.1705 133.401 44.3864 132.855 44.8182C132.31 45.2424 131.897 45.8333 131.616 46.5909C131.336 47.3485 131.196 48.2235 131.196 49.2159C131.196 50.2235 131.336 51.0947 131.616 51.8295C131.904 52.5568 132.317 53.1212 132.855 53.5227C133.401 53.9167 134.071 54.1136 134.866 54.1136ZM151.991 47.9091V58H147.151V40.5455H151.764V43.625H151.969C152.355 42.6098 153.003 41.8068 153.912 41.2159C154.821 40.6174 155.923 40.3182 157.219 40.3182C158.431 40.3182 159.488 40.5833 160.389 41.1136C161.291 41.6439 161.991 42.4015 162.491 43.3864C162.991 44.3636 163.241 45.5303 163.241 46.8864V58H158.401V47.75C158.408 46.6818 158.135 45.8485 157.582 45.25C157.029 44.6439 156.268 44.3409 155.298 44.3409C154.647 44.3409 154.071 44.4811 153.571 44.7614C153.079 45.0417 152.692 45.4508 152.412 45.9886C152.139 46.5189 151.999 47.1591 151.991 47.9091ZM167.057 58V40.5455H171.898V58H167.057ZM169.489 38.2955C168.769 38.2955 168.152 38.0568 167.636 37.5795C167.129 37.0947 166.875 36.5152 166.875 35.8409C166.875 35.1742 167.129 34.6023 167.636 34.125C168.152 33.6402 168.769 33.3977 169.489 33.3977C170.208 33.3977 170.822 33.6402 171.33 34.125C171.845 34.6023 172.102 35.1742 172.102 35.8409C172.102 36.5152 171.845 37.0947 171.33 37.5795C170.822 38.0568 170.208 38.2955 169.489 38.2955ZM185.06 40.5455V44.1818H174.548V40.5455H185.06ZM176.935 36.3636H181.776V52.6364C181.776 53.0833 181.844 53.4318 181.98 53.6818C182.116 53.9242 182.306 54.0947 182.548 54.1932C182.798 54.2917 183.086 54.3409 183.412 54.3409C183.639 54.3409 183.866 54.322 184.094 54.2841C184.321 54.2386 184.495 54.2045 184.616 54.1818L185.378 57.7841C185.135 57.8598 184.795 57.947 184.355 58.0455C183.916 58.1515 183.382 58.2159 182.753 58.2386C181.586 58.2841 180.563 58.1288 179.685 57.7727C178.813 57.4167 178.135 56.8636 177.651 56.1136C177.166 55.3636 176.927 54.4167 176.935 53.2727V36.3636ZM195.98 58.3409C194.185 58.3409 192.639 57.9773 191.344 57.25C190.056 56.5152 189.063 55.4773 188.366 54.1364C187.67 52.7879 187.321 51.1932 187.321 49.3523C187.321 47.5568 187.67 45.9811 188.366 44.625C189.063 43.2689 190.045 42.2121 191.31 41.4545C192.582 40.697 194.075 40.3182 195.787 40.3182C196.938 40.3182 198.01 40.5038 199.003 40.875C200.003 41.2386 200.874 41.7879 201.616 42.5227C202.366 43.2576 202.95 44.1818 203.366 45.2955C203.783 46.4015 203.991 47.697 203.991 49.1818V50.5114H189.253V47.5114H199.435C199.435 46.8144 199.283 46.197 198.98 45.6591C198.677 45.1212 198.257 44.7008 197.719 44.3977C197.188 44.0871 196.571 43.9318 195.866 43.9318C195.132 43.9318 194.48 44.1023 193.912 44.4432C193.351 44.7765 192.912 45.2273 192.594 45.7955C192.276 46.3561 192.113 46.9811 192.105 47.6705V50.5227C192.105 51.3864 192.264 52.1326 192.582 52.7614C192.908 53.3902 193.366 53.875 193.957 54.2159C194.548 54.5568 195.249 54.7273 196.06 54.7273C196.598 54.7273 197.09 54.6515 197.537 54.5C197.984 54.3485 198.366 54.1212 198.685 53.8182C199.003 53.5152 199.245 53.1439 199.412 52.7045L203.889 53C203.662 54.0758 203.196 55.0152 202.491 55.8182C201.795 56.6136 200.893 57.2348 199.787 57.6818C198.688 58.1212 197.42 58.3409 195.98 58.3409ZM214.648 58V34.7273H219.568V53.9432H229.545V58H214.648ZM237.69 58.3295C236.577 58.3295 235.584 58.1364 234.713 57.75C233.842 57.3561 233.152 56.7765 232.645 56.0114C232.145 55.2386 231.895 54.2765 231.895 53.125C231.895 52.1553 232.073 51.3409 232.429 50.6818C232.785 50.0227 233.27 49.4924 233.884 49.0909C234.497 48.6894 235.194 48.3864 235.974 48.1818C236.762 47.9773 237.588 47.8333 238.452 47.75C239.467 47.6439 240.285 47.5455 240.906 47.4545C241.527 47.3561 241.978 47.2121 242.259 47.0227C242.539 46.8333 242.679 46.553 242.679 46.1818V46.1136C242.679 45.3939 242.452 44.8371 241.997 44.4432C241.55 44.0492 240.914 43.8523 240.088 43.8523C239.217 43.8523 238.524 44.0455 238.009 44.4318C237.493 44.8106 237.152 45.2879 236.986 45.8636L232.509 45.5C232.736 44.4394 233.183 43.5227 233.849 42.75C234.516 41.9697 235.376 41.3712 236.429 40.9545C237.49 40.5303 238.717 40.3182 240.111 40.3182C241.08 40.3182 242.009 40.4318 242.895 40.6591C243.789 40.8864 244.58 41.2386 245.27 41.7159C245.967 42.1932 246.516 42.8068 246.918 43.5568C247.319 44.2992 247.52 45.1894 247.52 46.2273V58H242.929V55.5795H242.793C242.512 56.125 242.137 56.6061 241.668 57.0227C241.198 57.4318 240.634 57.7538 239.974 57.9886C239.315 58.2159 238.554 58.3295 237.69 58.3295ZM239.077 54.9886C239.789 54.9886 240.418 54.8485 240.963 54.5682C241.509 54.2803 241.937 53.8939 242.247 53.4091C242.558 52.9242 242.713 52.375 242.713 51.7614V49.9091C242.562 50.0076 242.353 50.0985 242.088 50.1818C241.83 50.2576 241.539 50.3295 241.213 50.3977C240.887 50.4583 240.562 50.5152 240.236 50.5682C239.91 50.6136 239.615 50.6553 239.349 50.6932C238.781 50.7765 238.285 50.9091 237.861 51.0909C237.437 51.2727 237.107 51.5189 236.872 51.8295C236.637 52.1326 236.52 52.5114 236.52 52.9659C236.52 53.625 236.759 54.1288 237.236 54.4773C237.721 54.8182 238.334 54.9886 239.077 54.9886ZM251.366 58V34.7273H256.207V43.4773H256.355C256.567 43.0076 256.874 42.5303 257.276 42.0455C257.685 41.553 258.215 41.1439 258.866 40.8182C259.526 40.4848 260.344 40.3182 261.321 40.3182C262.594 40.3182 263.768 40.6515 264.844 41.3182C265.92 41.9773 266.779 42.9735 267.423 44.3068C268.067 45.6326 268.389 47.2955 268.389 49.2955C268.389 51.2424 268.075 52.8864 267.446 54.2273C266.825 55.5606 265.976 56.572 264.901 57.2614C263.832 57.9432 262.635 58.2841 261.31 58.2841C260.37 58.2841 259.571 58.1288 258.912 57.8182C258.26 57.5076 257.726 57.1174 257.31 56.6477C256.893 56.1705 256.575 55.6894 256.355 55.2045H256.139V58H251.366ZM256.105 49.2727C256.105 50.3106 256.249 51.2159 256.537 51.9886C256.825 52.7614 257.241 53.3636 257.787 53.7955C258.332 54.2197 258.995 54.4318 259.776 54.4318C260.563 54.4318 261.23 54.2159 261.776 53.7841C262.321 53.3447 262.734 52.7386 263.014 51.9659C263.302 51.1856 263.446 50.2879 263.446 49.2727C263.446 48.2652 263.306 47.3788 263.026 46.6136C262.745 45.8485 262.332 45.25 261.787 44.8182C261.241 44.3864 260.571 44.1705 259.776 44.1705C258.988 44.1705 258.321 44.3788 257.776 44.7955C257.238 45.2121 256.825 45.803 256.537 46.5682C256.249 47.3333 256.105 48.2348 256.105 49.2727Z" fill="#E1E1E6"/>
<defs>
<clipPath id="clip0_18_71">
<rect width="105.312" height="120" fill="white"/>
</clipPath>
</defs>
</svg>
